<mxfile host="app.diagrams.net" agent="Mozilla/5.0 (Macintosh; Intel Mac OS X 10_15_7) AppleWebKit/537.36 (KHTML, like Gecko) Chrome/135.0.0.0 Safari/537.36" version="26.2.12">
  <diagram name="Страница — 1" id="__KJegHjTtjitnYy0Sma">
    <mxGraphModel dx="1133" dy="773" grid="1" gridSize="10" guides="1" tooltips="1" connect="1" arrows="1" fold="1" page="1" pageScale="1" pageWidth="827" pageHeight="1169" math="0" shadow="0">
      <root>
        <mxCell id="0" />
        <mxCell id="1" parent="0" />
        <mxCell id="SeIO1uszqXgC0cdjp2vw-4" value="" style="whiteSpace=wrap;html=1;aspect=fixed;" vertex="1" parent="1">
          <mxGeometry x="305" y="30" width="220" height="220" as="geometry" />
        </mxCell>
        <mxCell id="It2r11DD7dpv6iP5BhAy-6" value="" style="whiteSpace=wrap;html=1;" parent="1" vertex="1">
          <mxGeometry x="320" y="430" width="180" height="300" as="geometry" />
        </mxCell>
        <mxCell id="It2r11DD7dpv6iP5BhAy-1" value="Manager" style="whiteSpace=wrap;html=1;aspect=fixed;" parent="1" vertex="1">
          <mxGeometry x="110" y="330" width="80" height="80" as="geometry" />
        </mxCell>
        <mxCell id="It2r11DD7dpv6iP5BhAy-2" value="q1" style="rounded=0;whiteSpace=wrap;html=1;" parent="1" vertex="1">
          <mxGeometry x="350" y="470" width="120" height="50" as="geometry" />
        </mxCell>
        <mxCell id="It2r11DD7dpv6iP5BhAy-4" value="q2" style="rounded=0;whiteSpace=wrap;html=1;" parent="1" vertex="1">
          <mxGeometry x="350" y="545" width="120" height="50" as="geometry" />
        </mxCell>
        <mxCell id="It2r11DD7dpv6iP5BhAy-5" value="q3" style="rounded=0;whiteSpace=wrap;html=1;" parent="1" vertex="1">
          <mxGeometry x="350" y="660" width="120" height="50" as="geometry" />
        </mxCell>
        <mxCell id="It2r11DD7dpv6iP5BhAy-7" value="Mongo-express" style="whiteSpace=wrap;html=1;aspect=fixed;" parent="1" vertex="1">
          <mxGeometry x="120" y="60" width="100" height="100" as="geometry" />
        </mxCell>
        <mxCell id="SeIO1uszqXgC0cdjp2vw-1" value="" style="whiteSpace=wrap;html=1;aspect=fixed;" vertex="1" parent="1">
          <mxGeometry x="340" y="60" width="50" height="50" as="geometry" />
        </mxCell>
        <mxCell id="SeIO1uszqXgC0cdjp2vw-2" value="" style="whiteSpace=wrap;html=1;aspect=fixed;" vertex="1" parent="1">
          <mxGeometry x="440" y="60" width="50" height="50" as="geometry" />
        </mxCell>
        <mxCell id="SeIO1uszqXgC0cdjp2vw-3" value="" style="whiteSpace=wrap;html=1;aspect=fixed;" vertex="1" parent="1">
          <mxGeometry x="388" y="160" width="50" height="50" as="geometry" />
        </mxCell>
        <mxCell id="SeIO1uszqXgC0cdjp2vw-5" value="" style="endArrow=classic;startArrow=classic;html=1;rounded=0;" edge="1" parent="1">
          <mxGeometry width="50" height="50" relative="1" as="geometry">
            <mxPoint x="210" y="330" as="sourcePoint" />
            <mxPoint x="290" y="270" as="targetPoint" />
          </mxGeometry>
        </mxCell>
        <mxCell id="SeIO1uszqXgC0cdjp2vw-6" value="" style="endArrow=classic;startArrow=classic;html=1;rounded=0;" edge="1" parent="1">
          <mxGeometry width="50" height="50" relative="1" as="geometry">
            <mxPoint x="195" y="410" as="sourcePoint" />
            <mxPoint x="305" y="520" as="targetPoint" />
          </mxGeometry>
        </mxCell>
        <mxCell id="SeIO1uszqXgC0cdjp2vw-7" value="" style="endArrow=classic;startArrow=classic;html=1;rounded=0;" edge="1" parent="1">
          <mxGeometry width="50" height="50" relative="1" as="geometry">
            <mxPoint x="230" y="108.88999999999999" as="sourcePoint" />
            <mxPoint x="290" y="108.88999999999999" as="targetPoint" />
          </mxGeometry>
        </mxCell>
        <mxCell id="SeIO1uszqXgC0cdjp2vw-8" value="" style="endArrow=classic;startArrow=classic;html=1;rounded=0;" edge="1" parent="1">
          <mxGeometry width="50" height="50" relative="1" as="geometry">
            <mxPoint x="510" y="470" as="sourcePoint" />
            <mxPoint x="610" y="470" as="targetPoint" />
          </mxGeometry>
        </mxCell>
        <mxCell id="SeIO1uszqXgC0cdjp2vw-9" value="worker1" style="whiteSpace=wrap;html=1;aspect=fixed;" vertex="1" parent="1">
          <mxGeometry x="630" y="430" width="80" height="80" as="geometry" />
        </mxCell>
        <mxCell id="SeIO1uszqXgC0cdjp2vw-10" value="worker2" style="whiteSpace=wrap;html=1;aspect=fixed;" vertex="1" parent="1">
          <mxGeometry x="630" y="545" width="80" height="80" as="geometry" />
        </mxCell>
        <mxCell id="SeIO1uszqXgC0cdjp2vw-11" value="worker3" style="whiteSpace=wrap;html=1;aspect=fixed;" vertex="1" parent="1">
          <mxGeometry x="630" y="650" width="80" height="80" as="geometry" />
        </mxCell>
        <mxCell id="SeIO1uszqXgC0cdjp2vw-12" value="" style="endArrow=classic;startArrow=classic;html=1;rounded=0;" edge="1" parent="1">
          <mxGeometry width="50" height="50" relative="1" as="geometry">
            <mxPoint x="510" y="585" as="sourcePoint" />
            <mxPoint x="610" y="585" as="targetPoint" />
          </mxGeometry>
        </mxCell>
        <mxCell id="SeIO1uszqXgC0cdjp2vw-13" value="" style="endArrow=classic;startArrow=classic;html=1;rounded=0;" edge="1" parent="1">
          <mxGeometry width="50" height="50" relative="1" as="geometry">
            <mxPoint x="510" y="689.44" as="sourcePoint" />
            <mxPoint x="610" y="689.44" as="targetPoint" />
          </mxGeometry>
        </mxCell>
        <mxCell id="SeIO1uszqXgC0cdjp2vw-14" value="p" style="text;whiteSpace=wrap;html=1;" vertex="1" parent="1">
          <mxGeometry x="409" y="170" width="29" height="30" as="geometry" />
        </mxCell>
        <mxCell id="SeIO1uszqXgC0cdjp2vw-15" value="s1" style="text;whiteSpace=wrap;html=1;" vertex="1" parent="1">
          <mxGeometry x="355" y="70" width="20" height="40" as="geometry" />
        </mxCell>
        <mxCell id="SeIO1uszqXgC0cdjp2vw-16" value="s2" style="text;whiteSpace=wrap;html=1;" vertex="1" parent="1">
          <mxGeometry x="455" y="70" width="20" height="40" as="geometry" />
        </mxCell>
        <mxCell id="SeIO1uszqXgC0cdjp2vw-17" value="mongo-set" style="text;whiteSpace=wrap;html=1;" vertex="1" parent="1">
          <mxGeometry x="383.5" y="220" width="80" height="40" as="geometry" />
        </mxCell>
        <mxCell id="SeIO1uszqXgC0cdjp2vw-18" value="" style="shape=umlActor;verticalLabelPosition=bottom;verticalAlign=top;html=1;outlineConnect=0;" vertex="1" parent="1">
          <mxGeometry x="20" y="210" width="30" height="60" as="geometry" />
        </mxCell>
        <mxCell id="SeIO1uszqXgC0cdjp2vw-19" value="" style="endArrow=classic;startArrow=classic;html=1;rounded=0;" edge="1" parent="1">
          <mxGeometry width="50" height="50" relative="1" as="geometry">
            <mxPoint x="60" y="200" as="sourcePoint" />
            <mxPoint x="120" y="160" as="targetPoint" />
          </mxGeometry>
        </mxCell>
        <mxCell id="SeIO1uszqXgC0cdjp2vw-20" value="" style="endArrow=classic;startArrow=classic;html=1;rounded=0;" edge="1" parent="1">
          <mxGeometry width="50" height="50" relative="1" as="geometry">
            <mxPoint x="60" y="280" as="sourcePoint" />
            <mxPoint x="100" y="320" as="targetPoint" />
          </mxGeometry>
        </mxCell>
        <mxCell id="SeIO1uszqXgC0cdjp2vw-21" value="rebbit" style="text;whiteSpace=wrap;html=1;" vertex="1" parent="1">
          <mxGeometry x="388" y="430" width="50" height="40" as="geometry" />
        </mxCell>
        <mxCell id="SeIO1uszqXgC0cdjp2vw-22" value="..." style="text;whiteSpace=wrap;html=1;" vertex="1" parent="1">
          <mxGeometry x="398.5" y="610" width="50" height="40" as="geometry" />
        </mxCell>
      </root>
    </mxGraphModel>
  </diagram>
</mxfile>
